<svg xmlns="http://www.w3.org/2000/svg" width="1040" height="670" viewBox="0 0 1040 670" role="img" aria-labelledby="title desc">
<title id="title">按距离选择速度并推进接收方</title><desc id="desc">白底黑红蓝几何图；红色三角身图标为发起方，蓝色菱形身图标为接收方。</desc>
<defs>
<marker id="k" markerWidth="9" markerHeight="9" refX="7" refY="4" orient="auto" markerUnits="userSpaceOnUse"><path d="M0 0L8 4L0 8Z" fill="#000000" /></marker>
<marker id="r" markerWidth="9" markerHeight="9" refX="7" refY="4" orient="auto" markerUnits="userSpaceOnUse"><path d="M0 0L8 4L0 8Z" fill="#FF0000" /></marker>
<marker id="b" markerWidth="9" markerHeight="9" refX="7" refY="4" orient="auto" markerUnits="userSpaceOnUse"><path d="M0 0L8 4L0 8Z" fill="#0000FF" /></marker>
</defs>
<rect width="1040" height="670" fill="#FFFFFF" />
<g stroke-linecap="round" stroke-linejoin="round">
<text x="923.00" y="42.40" fill="#000000" font-family="Microsoft YaHei, PingFang SC, sans-serif" font-size="28" text-anchor="start">状态二</text>
<path d="M135.00 340.00L968.00 340.00" fill="none" stroke="#000000" stroke-width="2" marker-end="url(#k)" />
<path d="M135.00 340.00L135.00 51.00" fill="none" stroke="#000000" stroke-width="2" marker-end="url(#k)" />
<text x="912.00" y="324.00" fill="#000000" font-family="Microsoft YaHei, PingFang SC, sans-serif" font-size="28" text-anchor="start">追赶距离</text>
<text x="115.00" y="42.40" fill="#000000" font-family="Microsoft YaHei, PingFang SC, sans-serif" font-size="28" text-anchor="start">追赶速度</text>
<path d="M135.00 270.00L932.00 270.00" fill="none" stroke="#000000" stroke-width="1" stroke-dasharray="7 7" />
<text x="16.00" y="278.00" fill="#000000" font-family="Microsoft YaHei, PingFang SC, sans-serif" font-size="28" text-anchor="start">最低速度</text>
<path d="M135.00 116.00L932.00 116.00" fill="none" stroke="#000000" stroke-width="1" stroke-dasharray="7 7" />
<text x="16.00" y="124.00" fill="#000000" font-family="Microsoft YaHei, PingFang SC, sans-serif" font-size="28" text-anchor="start">最高速度</text>
<path d="M135.00 340.00L870.00 60.00" fill="none" stroke="#0000FF" stroke-width="1.5" stroke-dasharray="7 7" />
<path d="M135.00 340.00L193.80 340.00" fill="none" stroke="#FF0000" stroke-width="3" />
<path d="M193.80 270.00L318.75 270.00L723.00 116.00L928.80 116.00" fill="none" stroke="#FF0000" stroke-width="3" />
<circle cx="193.80" cy="340.00" r="4" fill="#FF0000" stroke="#FF0000" stroke-width="2.5" />
<circle cx="193.80" cy="270.00" r="4" fill="#FFFFFF" stroke="#FF0000" stroke-width="2.5" />
<text x="137.80" y="375.00" fill="#000000" font-family="Microsoft YaHei, PingFang SC, sans-serif" font-size="28" text-anchor="start">停止半径</text>
<text x="490.00" y="147.00" fill="#0000FF" font-family="Microsoft YaHei, PingFang SC, sans-serif" font-size="28" text-anchor="start">弹簧系数</text>
<path d="M565.50 340.00L565.50 176.00" fill="none" stroke="#000000" stroke-width="1" stroke-dasharray="7 7" />
<path d="M560.50 176.00L570.50 176.00" fill="none" stroke="#000000" stroke-width="2" />
<path d="M565.50 171.00L565.50 181.00" fill="none" stroke="#000000" stroke-width="2" />
<text x="509.50" y="390.00" fill="#000000" font-family="Microsoft YaHei, PingFang SC, sans-serif" font-size="28" text-anchor="start">当前距离</text>
<path d="M410.00 448.00L820.00 448.00" fill="none" stroke="#000000" stroke-width="1.5" />
<path d="M410.00 443.00L410.00 453.00" fill="none" stroke="#000000" stroke-width="1.5" />
<path d="M820.00 443.00L820.00 453.00" fill="none" stroke="#000000" stroke-width="1.5" />
<text x="559.00" y="432.00" fill="#000000" font-family="Microsoft YaHei, PingFang SC, sans-serif" font-size="28" text-anchor="start">追赶距离</text>
<path d="M410.00 535.00L820.00 535.00" fill="none" stroke="#000000" stroke-width="1.5" />
<path d="M815.00 535.00L825.00 535.00" fill="none" stroke="#FF0000" stroke-width="2" />
<path d="M820.00 530.00L820.00 540.00" fill="none" stroke="#FF0000" stroke-width="2" />
<text x="834.00" y="566.00" fill="#FF0000" font-family="Microsoft YaHei, PingFang SC, sans-serif" font-size="28" text-anchor="start">跟随目标</text>
<path d="M410.00 590.00L585.71 590.00" fill="none" stroke="#0000FF" stroke-width="3" marker-end="url(#b)" />
<path d="M410.00 622.00L585.71 622.00" fill="none" stroke="#0000FF" stroke-width="1.5" />
<path d="M410.00 617.00L410.00 627.00" fill="none" stroke="#0000FF" stroke-width="1.5" />
<path d="M585.71 617.00L585.71 627.00" fill="none" stroke="#0000FF" stroke-width="1.5" />
<text x="441.86" y="580.00" fill="#0000FF" font-family="Microsoft YaHei, PingFang SC, sans-serif" font-size="28" text-anchor="start">本帧步长</text>
<g data-role="recipient" data-x="410.00" data-y="535.00" transform="translate(410.00 535.00) scale(1)">
<circle cx="0.00" cy="-36.00" r="6" fill="#FFFFFF" stroke="#0000FF" stroke-width="2.5" />
<path d="M0 -28L-12 -18L0 -8L12 -18Z" fill="#FFFFFF" stroke="#0000FF" stroke-width="2.5" />
<path d="M-5.00 -10.00L-10.00 0.00" fill="none" stroke="#0000FF" stroke-width="2.5" />
<path d="M5.00 -10.00L10.00 0.00" fill="none" stroke="#0000FF" stroke-width="2.5" />
</g>
<text x="428.00" y="526.00" fill="#0000FF" font-family="Microsoft YaHei, PingFang SC, sans-serif" font-size="28" text-anchor="start">接收方</text>
<g data-role="initiator" data-x="938.00" data-y="468.00" transform="translate(938.00 468.00) scale(1)">
<circle cx="0.00" cy="-36.00" r="6" fill="#FFFFFF" stroke="#FF0000" stroke-width="2.5" />
<path d="M0 -27L-12 -9L12 -9Z" fill="#FFFFFF" stroke="#FF0000" stroke-width="2.5" />
<path d="M-5.00 -10.00L-10.00 0.00" fill="none" stroke="#FF0000" stroke-width="2.5" />
<path d="M5.00 -10.00L10.00 0.00" fill="none" stroke="#FF0000" stroke-width="2.5" />
</g>
<text x="940.00" y="507.00" fill="#FF0000" font-family="Microsoft YaHei, PingFang SC, sans-serif" font-size="28" text-anchor="start">发起方</text>
<path d="M938.00 468.00L820.00 535.00" fill="none" stroke="#FF0000" stroke-width="1.5" stroke-dasharray="7 7" />
</g>
</svg>