<svg xmlns="http://www.w3.org/2000/svg" width="1040" height="650" viewBox="0 0 1040 650" role="img" aria-labelledby="title desc">
<title id="title">掌心挂点和接触距离对可达范围的影响</title><desc id="desc">白底黑红蓝几何图；红色三角身图标为发起方，蓝色菱形身图标为接收方。实线骨链包含双方各自的肩、肘、腕三个节点。</desc>
<defs>
<marker id="k" markerWidth="9" markerHeight="9" refX="7" refY="4" orient="auto" markerUnits="userSpaceOnUse"><path d="M0 0L8 4L0 8Z" fill="#000000" /></marker>
<marker id="r" markerWidth="9" markerHeight="9" refX="7" refY="4" orient="auto" markerUnits="userSpaceOnUse"><path d="M0 0L8 4L0 8Z" fill="#FF0000" /></marker>
<marker id="b" markerWidth="9" markerHeight="9" refX="7" refY="4" orient="auto" markerUnits="userSpaceOnUse"><path d="M0 0L8 4L0 8Z" fill="#0000FF" /></marker>
</defs>
<rect width="1040" height="650" fill="#FFFFFF" />
<g stroke-linecap="round" stroke-linejoin="round">
<text x="923.00" y="42.40" fill="#000000" font-family="Microsoft YaHei, PingFang SC, sans-serif" font-size="28" text-anchor="start">状态一</text>
<circle cx="315.00" cy="270.00" r="224.0" fill="none" stroke="#FF0000" stroke-width="2.5" stroke-dasharray="7 7" />
<circle cx="725.00" cy="270.00" r="224.0" fill="none" stroke="#0000FF" stroke-width="2.5" stroke-dasharray="7 7" />
<path d="M315.00 270.00L153.72 114.54" fill="none" stroke="#FF0000" stroke-width="1.5" />
<path d="M725.00 270.00L886.28 114.54" fill="none" stroke="#0000FF" stroke-width="1.5" />
<text x="215.80" y="163.12" fill="#FF0000" font-family="Microsoft YaHei, PingFang SC, sans-serif" font-size="28" text-anchor="start">可达半径</text>
<text x="823.56" y="235.12" fill="#0000FF" font-family="Microsoft YaHei, PingFang SC, sans-serif" font-size="28" text-anchor="start">可达半径</text>
<path d="M315.00 270.00L315.00 515.00" fill="none" stroke="#000000" stroke-width="1" stroke-dasharray="7 7" />
<path d="M315.00 270.00L390.66 369.50L504.00 350.00" fill="none" stroke="#FF0000" stroke-width="3.5" />
<path d="M504.00 350.00L520.00 350.00" fill="none" stroke="#FF0000" stroke-width="2.2" />
<g data-bone-node="S_i">
<circle cx="315.00" cy="270.00" r="6" fill="#FFFFFF" stroke="#FF0000" stroke-width="2.5" />
</g>
<text x="294.00" y="231.00" fill="#FF0000" font-family="Microsoft YaHei, PingFang SC, sans-serif" font-size="30" text-anchor="start">肩</text>
<g data-bone-node="E_i">
<circle cx="390.66" cy="369.50" r="6" fill="#FFFFFF" stroke="#FF0000" stroke-width="2.5" />
</g>
<text x="345.66" y="392.50" fill="#FF0000" font-family="Microsoft YaHei, PingFang SC, sans-serif" font-size="30" text-anchor="start">肘</text>
<g data-bone-node="W_i">
<circle cx="504.00" cy="350.00" r="6" fill="#FFFFFF" stroke="#FF0000" stroke-width="2.5" />
</g>
<text x="466.00" y="330.00" fill="#FF0000" font-family="Microsoft YaHei, PingFang SC, sans-serif" font-size="30" text-anchor="start">腕</text>
<g data-role="initiator" data-x="315.00" data-y="565.00" transform="translate(315.00 565.00) scale(1.2)">
<circle cx="0.00" cy="-36.00" r="6" fill="#FFFFFF" stroke="#FF0000" stroke-width="2.5" />
<path d="M0 -27L-12 -9L12 -9Z" fill="#FFFFFF" stroke="#FF0000" stroke-width="2.5" />
<path d="M-5.00 -10.00L-10.00 0.00" fill="none" stroke="#FF0000" stroke-width="2.5" />
<path d="M5.00 -10.00L10.00 0.00" fill="none" stroke="#FF0000" stroke-width="2.5" />
</g>
<text x="333.00" y="580.00" fill="#FF0000" font-family="Microsoft YaHei, PingFang SC, sans-serif" font-size="28" text-anchor="start">发起方</text>
<path d="M725.00 270.00L725.00 515.00" fill="none" stroke="#000000" stroke-width="1" stroke-dasharray="7 7" />
<path d="M725.00 270.00L649.34 369.50L536.00 350.00" fill="none" stroke="#0000FF" stroke-width="3.5" />
<path d="M536.00 350.00L520.00 350.00" fill="none" stroke="#0000FF" stroke-width="2.2" />
<g data-bone-node="S_r">
<circle cx="725.00" cy="270.00" r="6" fill="#FFFFFF" stroke="#0000FF" stroke-width="2.5" />
</g>
<text x="716.00" y="231.00" fill="#0000FF" font-family="Microsoft YaHei, PingFang SC, sans-serif" font-size="30" text-anchor="start">肩</text>
<g data-bone-node="E_r">
<circle cx="649.34" cy="369.50" r="6" fill="#FFFFFF" stroke="#0000FF" stroke-width="2.5" />
</g>
<text x="664.34" y="392.50" fill="#0000FF" font-family="Microsoft YaHei, PingFang SC, sans-serif" font-size="30" text-anchor="start">肘</text>
<g data-bone-node="W_r">
<circle cx="536.00" cy="350.00" r="6" fill="#FFFFFF" stroke="#0000FF" stroke-width="2.5" />
</g>
<text x="544.00" y="330.00" fill="#0000FF" font-family="Microsoft YaHei, PingFang SC, sans-serif" font-size="30" text-anchor="start">腕</text>
<g data-role="recipient" data-x="725.00" data-y="565.00" transform="translate(725.00 565.00) scale(1.2)">
<circle cx="0.00" cy="-36.00" r="6" fill="#FFFFFF" stroke="#0000FF" stroke-width="2.5" />
<path d="M0 -28L-12 -18L0 -8L12 -18Z" fill="#FFFFFF" stroke="#0000FF" stroke-width="2.5" />
<path d="M-5.00 -10.00L-10.00 0.00" fill="none" stroke="#0000FF" stroke-width="2.5" />
<path d="M5.00 -10.00L10.00 0.00" fill="none" stroke="#0000FF" stroke-width="2.5" />
</g>
<text x="743.00" y="580.00" fill="#0000FF" font-family="Microsoft YaHei, PingFang SC, sans-serif" font-size="28" text-anchor="start">接收方</text>
<path d="M515.00 350.00L525.00 350.00" fill="none" stroke="#000000" stroke-width="2" />
<path d="M520.00 345.00L520.00 355.00" fill="none" stroke="#000000" stroke-width="2" />
<text x="464.00" y="467.00" fill="#000000" font-family="Microsoft YaHei, PingFang SC, sans-serif" font-size="28" text-anchor="start">实际握点</text>
<path d="M515.00 350.00L525.00 350.00" fill="none" stroke="#000000" stroke-width="2" />
<path d="M520.00 345.00L520.00 355.00" fill="none" stroke="#000000" stroke-width="2" />
<text x="384.00" y="275.00" fill="#000000" font-family="Microsoft YaHei, PingFang SC, sans-serif" font-size="28" text-anchor="start">目标握点</text>
<text x="318.00" y="453.00" fill="#FF0000" font-family="Microsoft YaHei, PingFang SC, sans-serif" font-size="28" text-anchor="start">掌心偏移</text>
<text x="610.00" y="453.00" fill="#0000FF" font-family="Microsoft YaHei, PingFang SC, sans-serif" font-size="28" text-anchor="start">掌心偏移</text>
</g>
</svg>