<svg xmlns="http://www.w3.org/2000/svg" width="900" height="580" viewBox="0 0 900 580" role="img" aria-labelledby="title desc">
<title id="title">站位点先绕行、接收方再逐帧追赶的弹簧绕行模型</title><desc id="desc">红色三角身图标表示发起方，蓝色菱形身图标表示接收方，按正文逐步引入其余对象。</desc>
<rect width="900" height="580" fill="#FFFFFF"/>
<defs>
<marker id="k" markerWidth="12" markerHeight="12" refX="10" refY="5" orient="auto" markerUnits="userSpaceOnUse"><path d="M0 0L11 5L0 10Z" fill="#000000"/></marker>
<marker id="r" markerWidth="12" markerHeight="12" refX="10" refY="5" orient="auto" markerUnits="userSpaceOnUse"><path d="M0 0L11 5L0 10Z" fill="#FF0000"/></marker>
<marker id="b" markerWidth="12" markerHeight="12" refX="10" refY="5" orient="auto" markerUnits="userSpaceOnUse"><path d="M0 0L11 5L0 10Z" fill="#0000FF"/></marker>
</defs>
<g stroke-linecap="round" stroke-linejoin="round">
<text x="855" y="43" fill="#000000" font-size="28" font-family="Microsoft YaHei, PingFang SC, sans-serif" text-anchor="end">站位点开始绕行</text>
<path d="M391.00 413.60L390.36 411.99L388.75 407.75L386.59 401.59L384.20 394.02L381.83 385.42L379.66 376.05L377.82 366.11L376.38 355.75L375.41 345.09L374.94 334.22L375.00 323.22L375.61 312.16L376.77 301.07L378.48 290.01L380.75 279.03L383.56 268.15L386.93 257.41L390.83 246.84L395.25 236.47L400.19 226.33" fill="none" stroke="#000000" stroke-width="2" stroke-dasharray="9 9"/>
<path d="M391.00 413.60L390.96 413.49L390.81 413.11L390.45 412.12L389.61 409.70L388.58 406.47L387.51 402.82L386.54 399.15L385.67 395.45L384.91 391.72L384.26 387.98L383.72 384.22L383.30 380.44L382.99 376.65L382.79 372.86L382.71 369.06L382.74 365.26L382.89 361.46L383.15 357.67L383.53 353.89L384.02 350.12" fill="none" stroke="#0000FF" stroke-width="3"/>
<path d="M376.38 355.75L374.94 334.22" fill="none" stroke="#000000" stroke-width="2" marker-end="url(#k)"/>
<path d="M385.67 395.45L384.26 387.98" fill="none" stroke="#0000FF" stroke-width="2" marker-end="url(#b)"/>
<circle cx="391.00" cy="413.60" r="4" fill="#000000" stroke="#000000" stroke-width="2"/>
<text x="371.0" y="453.6" fill="#000000" font-size="27" font-family="Microsoft YaHei, PingFang SC, sans-serif" text-anchor="end">起点</text>
<path d="M391.19 226.33L409.19 226.33" fill="none" stroke="#000000" stroke-width="3"/>
<path d="M400.19 217.33L400.19 235.33" fill="none" stroke="#000000" stroke-width="3"/>
<g data-role="initiator" data-x="600.0000" data-y="330.0000" transform="translate(600.00 330.00)">
<circle cx="0.00" cy="-51.00" r="8" fill="none" stroke="#FF0000" stroke-width="2"/>
<path d="M0.00 -37.00L-18.00 -12.00L18.00 -12.00L0.00 -37.00" fill="none" stroke="#FF0000" stroke-width="3"/>
<path d="M-7.00 -12.00L-13.00 0.00" fill="none" stroke="#FF0000" stroke-width="3"/>
<path d="M7.00 -12.00L13.00 0.00" fill="none" stroke="#FF0000" stroke-width="3"/>
</g>
<text x="600" y="375" fill="#FF0000" font-size="32" font-family="Microsoft YaHei, PingFang SC, sans-serif" text-anchor="middle">发起方</text>
<g data-role="recipient" data-x="384.0195" data-y="350.1226" transform="translate(384.02 350.12)">
<circle cx="0.00" cy="-51.00" r="8" fill="none" stroke="#0000FF" stroke-width="2"/>
<path d="M0.00 -37.00L-18.00 -23.00L0.00 -9.00L18.00 -23.00L0.00 -37.00" fill="none" stroke="#0000FF" stroke-width="3"/>
<path d="M-7.00 -12.00L-13.00 0.00" fill="none" stroke="#0000FF" stroke-width="3"/>
<path d="M7.00 -12.00L13.00 0.00" fill="none" stroke="#0000FF" stroke-width="3"/>
</g>
<path d="M635.00 330.00L830.00 330.00" fill="none" stroke="#FF0000" stroke-width="3" marker-end="url(#r)"/>
<text x="746" y="385" fill="#FF0000" font-size="28" font-family="Microsoft YaHei, PingFang SC, sans-serif" text-anchor="start">朝向</text>
<text x="430.1936563727131" y="236.3304044268786" fill="#000000" font-size="29" font-family="Microsoft YaHei, PingFang SC, sans-serif" text-anchor="start">站位点</text>
<text x="346.0194590837454" y="332.1225501236831" fill="#0000FF" font-size="29" font-family="Microsoft YaHei, PingFang SC, sans-serif" text-anchor="end">接收方</text>
<path d="M384.02 350.12L400.19 226.33" fill="none" stroke="#0000FF" stroke-width="1.5" stroke-dasharray="9 9" marker-end="url(#b)"/>
</g>
</svg>
